# Blender v2.92.0 OBJ File: ''
# www.blender.org
mtllib ground_mesh.mtl
o Cube.001_Cube.002
v 5.000000 0.000000 -17.351631
v 5.000000 0.000000 -7.351630
v -5.000000 0.000000 -17.351631
v -5.000000 0.000000 -7.351630
v -5.000000 1.339167 -7.351630
v 5.000000 1.339167 -7.351630
v -5.000000 1.339167 -12.351630
v 0.000000 1.339167 -7.351630
v -2.500000 1.339167 -7.351630
v 5.000000 1.339167 -9.851630
v -5.000000 1.339167 -9.851630
v 2.500000 1.339167 -7.351630
v -2.500000 1.339167 -12.351630
v -2.500000 1.339167 -9.851630
v 0.000000 1.339167 -12.351630
v 0.000000 1.339167 -9.851630
v 2.500000 1.339167 -9.851630
v 0.632981 2.283698 -11.718649
v 0.632981 2.283698 -10.484612
v 1.867019 2.283698 -11.718649
v 1.867019 2.283698 -10.484612
v -5.000000 1.339167 -14.851630
v -5.000000 1.339167 -17.351631
v -2.500000 1.339167 -17.351631
v -2.500000 1.339167 -14.851630
v 2.500000 0.000000 -7.351630
v -2.500000 0.000000 -7.351630
v 0.000000 0.000000 -7.351630
v 5.000000 0.000000 -14.851630
v 5.000000 0.000000 -9.851630
v 5.000000 0.000000 -12.351630
v -2.500000 0.000000 -17.351631
v 2.500000 0.000000 -17.351631
v 0.000000 0.000000 -17.351631
v -5.000000 0.000000 -9.851630
v -5.000000 0.000000 -14.851630
v -5.000000 0.000000 -12.351630
v -4.469777 2.099629 -15.381853
v -4.469777 2.099629 -16.821407
v -3.030223 2.099629 -16.821407
v -3.030223 2.099629 -15.381853
v 2.500000 1.339167 -17.351631
v 5.000000 1.339167 -17.351631
v 5.000000 1.339167 -14.851630
v 5.000000 1.339167 -12.351630
v 2.500000 1.339167 -12.351630
v 0.000000 1.339167 -17.351631
v 0.000000 1.339167 -14.851630
v 2.500000 1.339167 -14.851630
v 2.500000 2.296023 -16.655153
v 3.196477 2.296023 -15.548107
v 4.303523 2.296023 -14.851630
v 4.303524 2.296023 -16.655153
v 4.303524 2.296023 -13.048107
v 3.196477 2.296023 -13.048107
v 0.696477 2.296023 -16.655153
v 0.696477 2.296023 -15.548107
vt 0.687500 0.687500
vt 0.750000 0.687500
vt 0.750000 0.750000
vt 0.687500 0.750000
vt 0.812500 0.687500
vt 0.875000 0.687500
vt 0.875000 0.750000
vt 0.812500 0.750000
vt 0.687500 0.500000
vt 0.687500 0.500000
vt 0.625000 0.500000
vt 0.625000 0.500000
vt 0.875000 0.562500
vt 0.875000 0.562500
vt 0.875000 0.500000
vt 0.875000 0.500000
vt 0.812500 0.750000
vt 0.875000 0.750000
vt 0.625000 0.687500
vt 0.625000 0.687500
vt 0.625000 0.750000
vt 0.625000 0.750000
vt 0.687500 0.562500
vt 0.750000 0.562500
vt 0.750000 0.625000
vt 0.687500 0.625000
vt 0.812500 0.562500
vt 0.875000 0.625000
vt 0.812500 0.625000
vt 0.750000 0.500000
vt 0.812500 0.500000
vt 0.625000 0.625000
vt 0.734176 0.671676
vt 0.734176 0.640825
vt 0.703325 0.640825
vt 0.703325 0.671676
vt 0.750000 0.750000
vt 0.625000 0.562500
vt 0.625000 0.562500
vt 0.625000 0.625000
vt 0.812500 0.500000
vt 0.750000 0.500000
vt 0.875000 0.687500
vt 0.875000 0.625000
vt 0.825756 0.549245
vt 0.861744 0.549244
vt 0.825756 0.513256
vt 0.861745 0.513256
vt 0.670088 0.607588
vt 0.670088 0.545088
vt 0.732588 0.545088
vt 0.732588 0.517412
vt 0.642412 0.562500
vt 0.642412 0.607588
vt 0.642412 0.517412
vt 0.687500 0.517412
vt 0.687500 0.750000
vn 0.0000 1.0000 0.0000
vn 0.0000 0.0000 -1.0000
vn -1.0000 0.0000 0.0000
vn 0.0000 0.0000 1.0000
vn 1.0000 0.0000 0.0000
vn -0.8307 0.5567 0.0000
vn 0.0000 0.5567 -0.8307
vn 0.8307 0.5567 0.0000
vn 0.0000 0.5567 0.8307
vn 0.0000 0.5719 0.8203
vn -0.8203 0.5719 0.0000
vn 0.0000 0.5719 -0.8203
vn 0.8203 0.5719 0.0000
vn -0.8085 0.5885 0.0000
vn 0.0000 0.5885 0.8085
vn 0.0000 0.5885 -0.8085
vn 0.8085 0.5885 0.0000
usemtl Material
s off
f 17/1/1 16/2/1 8/3/1 12/4/1
f 14/5/1 11/6/1 5/7/1 9/8/1
f 33/9/2 42/10/2 43/11/2 1/12/2
f 36/13/3 22/14/3 23/15/3 3/16/3
f 27/17/4 9/8/4 5/7/4 4/18/4
f 30/19/5 10/20/5 6/21/5 2/22/5
f 49/23/1 48/24/1 15/25/1 46/26/1
f 25/27/1 22/14/1 7/28/1 13/29/1
f 48/24/1 25/27/1 13/29/1 15/25/1
f 47/30/1 24/31/1 25/27/1 48/24/1
f 16/2/1 14/5/1 9/8/1 8/3/1
f 15/25/1 13/29/1 14/5/1 16/2/1
f 13/29/1 7/28/1 11/6/1 14/5/1
f 10/20/1 17/1/1 12/4/1 6/21/1
f 45/32/1 46/26/1 17/1/1 10/20/1
f 16/2/6 19/33/6 18/34/6 15/25/6
f 46/26/7 15/25/7 18/34/7 20/35/7
f 17/1/8 46/26/8 20/35/8 21/36/8
f 17/1/9 21/36/9 19/33/9 16/2/9
f 20/35/1 18/34/1 19/33/1 21/36/1
f 28/37/4 8/3/4 9/8/4 27/17/4
f 1/12/5 43/11/5 44/38/5 29/39/5
f 29/39/5 44/38/5 45/32/5 31/40/5
f 31/40/5 45/32/5 10/20/5 30/19/5
f 3/16/2 23/15/2 24/31/2 32/41/2
f 32/41/2 24/31/2 47/30/2 34/42/2
f 34/42/2 47/30/2 42/10/2 33/9/2
f 4/18/3 5/7/3 11/6/3 35/43/3
f 35/43/3 11/6/3 7/28/3 37/44/3
f 37/44/3 7/28/3 22/14/3 36/13/3
f 25/27/10 41/45/10 38/46/10 22/14/10
f 40/47/1 39/48/1 38/46/1 41/45/1
f 23/15/11 22/14/11 38/46/11 39/48/11
f 24/31/12 23/15/12 39/48/12 40/47/12
f 25/27/13 24/31/13 40/47/13 41/45/13
f 46/26/14 55/49/14 51/50/14 49/23/14
f 49/23/15 51/50/15 57/51/15 48/24/15
f 48/24/14 57/51/14 56/52/14 47/30/14
f 52/53/1 51/50/1 55/49/1 54/54/1
f 53/55/1 50/56/1 51/50/1 52/53/1
f 50/56/1 56/52/1 57/51/1 51/50/1
f 42/10/16 47/30/16 56/52/16 50/56/16
f 43/11/16 42/10/16 50/56/16 53/55/16
f 44/38/17 43/11/17 53/55/17 52/53/17
f 45/32/17 44/38/17 52/53/17 54/54/17
f 45/32/15 54/54/15 55/49/15 46/26/15
f 26/57/4 12/4/4 8/3/4 28/37/4
f 2/22/4 6/21/4 12/4/4 26/57/4
