# Blender v2.92.0 OBJ File: ''
# www.blender.org
mtllib ground.mtl
o Cube
v 4.714768 1.339167 -4.714768
v -4.774902 1.339167 -4.774902
v -5.000000 1.339167 5.000000
v 5.000000 1.339167 5.000000
v 0.285232 1.339167 -4.714768
v -5.000000 1.339167 0.000000
v 0.000000 1.339167 5.000000
v 4.714768 1.339167 -0.285232
v 0.187803 1.339167 0.187803
v 2.500000 1.339167 -4.714767
v -4.774902 1.339167 -2.725098
v -2.500000 1.339167 5.000000
v 5.000000 1.339167 2.500000
v -2.725098 1.339167 -4.774902
v -5.000000 1.339167 2.500000
v 2.500000 1.339167 5.000000
v 4.714767 1.339167 -2.500000
v 0.187803 1.339167 2.312197
v 0.285232 1.339167 -2.785232
v 2.312197 1.339167 0.187803
v -2.500000 1.339167 0.000000
v -2.725098 1.339167 -2.725098
v 2.785232 1.339167 -2.785232
v -2.500000 1.339167 2.500000
v 2.312197 1.339167 2.312197
v 0.000000 1.339167 0.000000
v 0.000000 1.339167 2.500000
v 2.785232 1.339167 -0.285232
v 2.500000 1.339167 2.500000
v 0.414964 1.670364 0.414964
v 0.414964 1.670364 2.085036
v 2.085036 1.670364 0.414964
v 2.085036 1.670364 2.085036
v 0.187803 1.670364 0.187803
v 0.187803 1.670364 2.312197
v 2.312197 1.670364 0.187803
v 2.312197 1.670364 2.312197
v 0.632981 1.961743 0.632981
v 0.632981 1.961743 1.867019
v 1.867019 1.961743 0.632981
v 1.867019 1.961743 1.867019
v 0.414964 1.961743 0.414964
v 0.414964 1.961743 2.085036
v 2.085036 1.961743 0.414964
v 2.085036 1.961743 2.085036
v 0.632981 2.283698 0.632981
v 0.632981 2.283698 1.867019
v 1.867019 2.283698 0.632981
v 1.867019 2.283698 1.867019
v -5.000000 1.339167 -2.500000
v -5.000000 1.339167 -5.000000
v -2.500000 1.339167 -5.000000
v -2.500000 1.339167 -2.500000
v -4.621007 1.618710 -2.878993
v -4.621007 1.618710 -4.621007
v -2.878993 1.618710 -4.621007
v -2.878993 1.618710 -2.878993
v -4.774902 1.618710 -2.725098
v -4.774902 1.618710 -4.774902
v -2.725098 1.618710 -4.774902
v -2.725098 1.618710 -2.725098
v -4.469777 1.891522 -3.030223
v -4.469777 1.891522 -4.469777
v -3.030223 1.891522 -4.469777
v -3.030223 1.891522 -3.030223
v -4.621007 1.891522 -2.878993
v -4.621007 1.891522 -4.621007
v -2.878993 1.891522 -4.621007
v -2.878993 1.891522 -2.878993
v -4.469777 2.099629 -3.030223
v -4.469777 2.099629 -4.469777
v -3.030223 2.099629 -4.469777
v -3.030223 2.099629 -3.030223
v 2.500000 1.339167 -5.000000
v 5.000000 1.339167 -5.000000
v 5.000000 1.339167 -2.500000
v 5.000000 1.339167 0.000000
v 2.500000 1.339167 0.000000
v 0.000000 1.339167 -5.000000
v 0.000000 1.339167 -2.500000
v 2.500000 1.339167 -2.500000
v 2.500000 1.623935 -4.714767
v 2.785232 1.623935 -2.785232
v 4.515347 1.623935 -2.500000
v 4.515347 1.623935 -4.515347
v 4.515347 1.623935 -0.484653
v 2.984653 1.623935 -0.484653
v 0.484653 1.623935 -4.515347
v 0.484653 1.623935 -2.984653
v 2.500000 1.623935 -4.515347
v 4.714768 1.623935 -4.714768
v 4.714767 1.623935 -2.500000
v 4.714768 1.623935 -0.285232
v 2.785232 1.623935 -0.285232
v 0.285232 1.623935 -4.714768
v 0.285232 1.623935 -2.785232
v 2.984653 1.623935 -2.984653
v 2.500000 1.938788 -4.515347
v 2.984653 1.938788 -2.984653
v 4.515347 1.938788 -2.500000
v 4.303524 1.938788 -4.303524
v 4.303524 1.938788 -0.696477
v 3.196477 1.938788 -0.696477
v 0.696477 1.938788 -4.303524
v 0.696477 1.938788 -3.196477
v 2.500000 1.938788 -4.303523
v 4.515347 1.938788 -4.515347
v 4.303523 1.938788 -2.500000
v 4.515347 1.938788 -0.484653
v 2.984653 1.938788 -0.484653
v 0.484653 1.938788 -4.515347
v 0.484653 1.938788 -2.984653
v 3.196477 1.938788 -3.196477
v 2.500000 2.296023 -4.303523
v 3.196477 2.296023 -3.196477
v 4.303523 2.296023 -2.500000
v 4.303524 2.296023 -4.303524
v 4.303524 2.296023 -0.696477
v 3.196477 2.296023 -0.696477
v 0.696477 2.296023 -4.303524
v 0.696477 2.296023 -3.196477
v -5.000000 0.000000 5.000000
v 5.000000 0.000000 5.000000
v -5.000000 0.000000 0.000000
v 0.000000 0.000000 5.000000
v -2.500000 0.000000 5.000000
v 5.000000 0.000000 2.500000
v -5.000000 0.000000 2.500000
v 2.500000 0.000000 5.000000
v -5.000000 0.000000 -2.500000
v -5.000000 0.000000 -5.000000
v -2.500000 0.000000 -5.000000
v 2.500000 0.000000 -5.000000
v 5.000000 0.000000 -5.000000
v 5.000000 0.000000 -2.500000
v 5.000000 0.000000 0.000000
v 0.000000 0.000000 -5.000000
vt 0.687500 0.687500
vt 0.750000 0.687500
vt 0.750000 0.750000
vt 0.687500 0.750000
vt 0.812500 0.687500
vt 0.875000 0.687500
vt 0.875000 0.750000
vt 0.812500 0.750000
vt 0.687500 0.562500
vt 0.750000 0.562500
vt 0.750000 0.625000
vt 0.687500 0.625000
vt 0.812500 0.562500
vt 0.875000 0.562500
vt 0.875000 0.625000
vt 0.812500 0.625000
vt 0.750000 0.500000
vt 0.812500 0.500000
vt 0.818128 0.556873
vt 0.818127 0.505627
vt 0.818127 0.505627
vt 0.818128 0.556873
vt 0.632131 0.507131
vt 0.687500 0.507131
vt 0.687500 0.507131
vt 0.632131 0.507131
vt 0.680369 0.617869
vt 0.632131 0.617869
vt 0.632131 0.617869
vt 0.680369 0.617869
vt 0.632131 0.562500
vt 0.632131 0.562500
vt 0.625000 0.687500
vt 0.625000 0.750000
vt 0.625000 0.625000
vt 0.692195 0.629695
vt 0.745305 0.629695
vt 0.745305 0.629695
vt 0.692195 0.629695
vt 0.745305 0.682805
vt 0.692195 0.682805
vt 0.739626 0.677126
vt 0.697874 0.677126
vt 0.697874 0.677126
vt 0.739626 0.677126
vt 0.692195 0.682805
vt 0.745305 0.682805
vt 0.739626 0.635374
vt 0.697874 0.635374
vt 0.703325 0.671676
vt 0.703325 0.640825
vt 0.703325 0.640825
vt 0.703325 0.671676
vt 0.739626 0.635374
vt 0.697874 0.635374
vt 0.734176 0.671676
vt 0.734176 0.640825
vt 0.734176 0.640825
vt 0.734176 0.671676
vt 0.869372 0.556872
vt 0.869373 0.505628
vt 0.875000 0.500000
vt 0.865525 0.553025
vt 0.821975 0.553025
vt 0.821975 0.553025
vt 0.865525 0.553025
vt 0.869372 0.556872
vt 0.869373 0.505628
vt 0.865525 0.509475
vt 0.821975 0.509475
vt 0.861744 0.549244
vt 0.825756 0.549245
vt 0.825756 0.549245
vt 0.861744 0.549244
vt 0.865525 0.509475
vt 0.821975 0.509475
vt 0.861745 0.513256
vt 0.825756 0.513256
vt 0.825756 0.513256
vt 0.861745 0.513256
vt 0.625000 0.500000
vt 0.687500 0.500000
vt 0.625000 0.562500
vt 0.742869 0.507131
vt 0.742869 0.555369
vt 0.680369 0.555369
vt 0.637116 0.612884
vt 0.637116 0.562500
vt 0.637116 0.562500
vt 0.637116 0.612884
vt 0.687500 0.512116
vt 0.737884 0.512116
vt 0.737884 0.512116
vt 0.687500 0.512116
vt 0.737884 0.550384
vt 0.737884 0.550384
vt 0.680369 0.555369
vt 0.742869 0.555369
vt 0.742869 0.507131
vt 0.637116 0.512116
vt 0.675384 0.612884
vt 0.675384 0.550384
vt 0.642412 0.607588
vt 0.642412 0.562500
vt 0.642412 0.562500
vt 0.642412 0.607588
vt 0.687500 0.517412
vt 0.732588 0.517412
vt 0.732588 0.517412
vt 0.687500 0.517412
vt 0.732588 0.545088
vt 0.732588 0.545088
vt 0.675384 0.612884
vt 0.675384 0.550384
vt 0.637116 0.512116
vt 0.642412 0.517412
vt 0.670088 0.607588
vt 0.670088 0.545088
vt 0.670088 0.545088
vt 0.670088 0.607588
vt 0.642412 0.517412
vt 0.625000 0.625000
vt 0.625000 0.562500
vt 0.625000 0.500000
vt 0.687500 0.500000
vt 0.625000 0.687500
vt 0.875000 0.500000
vt 0.875000 0.562500
vt 0.812500 0.500000
vt 0.875000 0.750000
vt 0.812500 0.750000
vt 0.875000 0.687500
vt 0.625000 0.750000
vt 0.687500 0.750000
vt 0.750000 0.500000
vt 0.875000 0.625000
vt 0.750000 0.750000
vn 0.0000 1.0000 0.0000
vn 1.0000 0.0000 0.0000
vn -0.0000 0.0000 -1.0000
vn 0.0000 0.0000 1.0000
vn -1.0000 0.0000 0.0000
usemtl Material
s off
f 29/1/1 27/2/1 7/3/1 16/4/1
f 24/5/1 15/6/1 3/7/1 12/8/1
f 81/9/1 80/10/1 26/11/1 78/12/1
f 53/13/1 50/14/1 6/15/1 21/16/1
f 80/10/1 53/13/1 21/16/1 26/11/1
f 79/17/1 52/18/1 53/13/1 80/10/1
f 22/19/2 14/20/2 60/21/2 61/22/2
f 1/23/3 10/24/3 82/25/3 91/26/3
f 28/27/4 8/28/4 93/29/4 94/30/4
f 17/31/2 1/23/2 91/26/2 92/32/2
f 27/2/1 24/5/1 12/8/1 7/3/1
f 26/11/1 21/16/1 24/5/1 27/2/1
f 21/16/1 6/15/1 15/6/1 24/5/1
f 13/33/1 29/1/1 16/4/1 4/34/1
f 77/35/1 78/12/1 29/1/1 13/33/1
f 20/36/3 9/37/3 34/38/3 36/39/3
f 18/40/1 9/37/1 26/11/1 27/2/1
f 9/37/1 20/36/1 78/12/1 26/11/1
f 20/36/1 25/41/1 29/1/1 78/12/1
f 25/41/1 18/40/1 27/2/1 29/1/1
f 31/42/4 33/43/4 45/44/4 43/45/4
f 25/41/2 20/36/2 36/39/2 37/46/2
f 9/37/5 18/40/5 35/47/5 34/38/5
f 18/40/4 25/41/4 37/46/4 35/47/4
f 31/42/1 30/48/1 34/38/1 35/47/1
f 30/48/1 32/49/1 36/39/1 34/38/1
f 32/49/1 33/43/1 37/46/1 36/39/1
f 33/43/1 31/42/1 35/47/1 37/46/1
f 41/50/2 40/51/2 48/52/2 49/53/2
f 32/49/3 30/48/3 42/54/3 44/55/3
f 33/43/2 32/49/2 44/55/2 45/44/2
f 30/48/5 31/42/5 43/45/5 42/54/5
f 39/56/1 38/57/1 42/54/1 43/45/1
f 38/57/1 40/51/1 44/55/1 42/54/1
f 40/51/1 41/50/1 45/44/1 44/55/1
f 41/50/1 39/56/1 43/45/1 45/44/1
f 48/52/1 46/58/1 47/59/1 49/53/1
f 38/57/5 39/56/5 47/59/5 46/58/5
f 39/56/4 41/50/4 49/53/4 47/59/4
f 40/51/3 38/57/3 46/58/3 48/52/3
f 11/60/1 2/61/1 51/62/1 50/14/1
f 2/61/1 14/20/1 52/18/1 51/62/1
f 14/20/1 22/19/1 53/13/1 52/18/1
f 22/19/1 11/60/1 50/14/1 53/13/1
f 54/63/4 57/64/4 69/65/4 66/66/4
f 2/61/5 11/60/5 58/67/5 59/68/5
f 11/60/4 22/19/4 61/22/4 58/67/4
f 14/20/3 2/61/3 59/68/3 60/21/3
f 54/63/1 55/69/1 59/68/1 58/67/1
f 55/69/1 56/70/1 60/21/1 59/68/1
f 56/70/1 57/64/1 61/22/1 60/21/1
f 57/64/1 54/63/1 58/67/1 61/22/1
f 62/71/4 65/72/4 73/73/4 70/74/4
f 56/70/3 55/69/3 67/75/3 68/76/3
f 57/64/2 56/70/2 68/76/2 69/65/2
f 55/69/5 54/63/5 66/66/5 67/75/5
f 62/71/1 63/77/1 67/75/1 66/66/1
f 63/77/1 64/78/1 68/76/1 67/75/1
f 64/78/1 65/72/1 69/65/1 68/76/1
f 65/72/1 62/71/1 66/66/1 69/65/1
f 72/79/1 71/80/1 70/74/1 73/73/1
f 64/78/3 63/77/3 71/80/3 72/79/3
f 65/72/2 64/78/2 72/79/2 73/73/2
f 63/77/5 62/71/5 70/74/5 71/80/5
f 10/24/1 1/23/1 75/81/1 74/82/1
f 17/31/1 8/28/1 77/35/1 76/83/1
f 8/28/1 28/27/1 78/12/1 77/35/1
f 5/84/1 10/24/1 74/82/1 79/17/1
f 1/23/1 17/31/1 76/83/1 75/81/1
f 19/85/1 5/84/1 79/17/1 80/10/1
f 28/27/1 23/86/1 81/9/1 78/12/1
f 23/86/1 19/85/1 80/10/1 81/9/1
f 86/87/2 84/88/2 100/89/2 109/90/2
f 90/91/3 88/92/3 111/93/3 98/94/3
f 88/92/5 89/95/5 112/96/5 111/93/5
f 19/85/4 23/86/4 83/97/4 96/98/4
f 5/84/5 19/85/5 96/98/5 95/99/5
f 10/24/3 5/84/3 95/99/3 82/25/3
f 8/28/2 17/31/2 92/32/2 93/29/2
f 23/86/5 28/27/5 94/30/5 83/97/5
f 90/91/1 85/100/1 91/26/1 82/25/1
f 84/88/1 86/87/1 93/29/1 92/32/1
f 86/87/1 87/101/1 94/30/1 93/29/1
f 88/92/1 90/91/1 82/25/1 95/99/1
f 85/100/1 84/88/1 92/32/1 91/26/1
f 89/95/1 88/92/1 95/99/1 96/98/1
f 87/101/1 97/102/1 83/97/1 94/30/1
f 97/102/1 89/95/1 96/98/1 83/97/1
f 102/103/2 108/104/2 116/105/2 118/106/2
f 106/107/3 104/108/3 120/109/3 114/110/3
f 104/108/5 105/111/5 121/112/5 120/109/5
f 97/102/5 87/101/5 110/113/5 99/114/5
f 84/88/2 85/100/2 107/115/2 100/89/2
f 87/101/4 86/87/4 109/90/4 110/113/4
f 85/100/3 90/91/3 98/94/3 107/115/3
f 89/95/4 97/102/4 99/114/4 112/96/4
f 106/107/1 101/116/1 107/115/1 98/94/1
f 108/104/1 102/103/1 109/90/1 100/89/1
f 102/103/1 103/117/1 110/113/1 109/90/1
f 104/108/1 106/107/1 98/94/1 111/93/1
f 101/116/1 108/104/1 100/89/1 107/115/1
f 105/111/1 104/108/1 111/93/1 112/96/1
f 103/117/1 113/118/1 99/114/1 110/113/1
f 113/118/1 105/111/1 112/96/1 99/114/1
f 116/105/1 115/119/1 119/120/1 118/106/1
f 117/121/1 114/110/1 115/119/1 116/105/1
f 114/110/1 120/109/1 121/112/1 115/119/1
f 113/118/5 103/117/5 119/120/5 115/119/5
f 108/104/2 101/116/2 117/121/2 116/105/2
f 103/117/4 102/103/4 118/106/4 119/120/4
f 101/116/3 106/107/3 114/110/3 117/121/3
f 105/111/4 113/118/4 115/119/4 121/112/4
f 76/83/2 77/35/2 136/122/2 135/123/2
f 74/82/3 75/81/3 134/124/3 133/125/3
f 77/35/2 13/33/2 127/126/2 136/122/2
f 50/14/5 51/62/5 131/127/5 130/128/5
f 51/62/3 52/18/3 132/129/3 131/127/3
f 12/8/4 3/7/4 122/130/4 126/131/4
f 3/7/5 15/6/5 128/132/5 122/130/5
f 13/33/2 4/34/2 123/133/2 127/126/2
f 4/34/4 16/4/4 129/134/4 123/133/4
f 52/18/3 79/17/3 137/135/3 132/129/3
f 75/81/2 76/83/2 135/123/2 134/124/2
f 79/17/3 74/82/3 133/125/3 137/135/3
f 15/6/5 6/15/5 124/136/5 128/132/5
f 6/15/5 50/14/5 130/128/5 124/136/5
f 16/4/4 7/3/4 125/137/4 129/134/4
f 7/3/4 12/8/4 126/131/4 125/137/4
